<svg width="20" height="20" viewBox="0 0 20 20" fill="none" xmlns="http://www.w3.org/2000/svg">
<path fill-rule="evenodd" clip-rule="evenodd" d="M3.00914 20C2.2108 20 1.45244 19.6829 0.881177 19.1188C0.309911 18.5547 0 17.7892 0 16.9909V3.00914C0 2.2108 0.317052 1.45244 0.881177 0.881177C1.4453 0.309912 2.2108 0 3.00914 0H16.9909C17.7892 0 18.5476 0.317052 19.1188 0.881177C19.6901 1.4453 20 2.2108 20 3.00914V16.9909C20 17.7892 19.6829 18.5476 19.1188 19.1188C18.5547 19.6901 17.7892 20 16.9909 20H3.00914ZM15.2199 11.5596H13.1063V18.5433H16.9909C17.1949 18.5438 17.397 18.5041 17.5856 18.4263C17.7742 18.3484 17.9456 18.2341 18.0898 18.0898C18.2341 17.9456 18.3484 17.7742 18.4263 17.5856C18.5041 17.397 18.5438 17.1949 18.5433 16.9909V3.00914C18.5435 2.80522 18.5034 2.60327 18.4255 2.41483C18.3475 2.2264 18.2332 2.05519 18.089 1.911C17.9448 1.76681 17.7736 1.65246 17.5852 1.57451C17.3967 1.49656 17.1948 1.45654 16.9909 1.45673H3.00914C2.59776 1.45786 2.20356 1.62178 1.91267 1.91267C1.62178 2.20356 1.45786 2.59776 1.45673 3.00914V16.9909C1.45786 17.4022 1.62178 17.7964 1.91267 18.0873C2.20356 18.3782 2.59776 18.5421 3.00914 18.5433H10.7783V11.5596H8.45044V9.23165H10.7783V7.98058C10.7783 5.60983 11.9323 4.56727 13.906 4.56727C14.83 4.56727 15.327 4.63439 15.5627 4.66724L15.577 4.66867V6.8966H14.2345C13.5576 6.8966 13.2376 7.18652 13.1405 7.77064C13.1172 7.92279 13.1062 8.07658 13.1077 8.23051V9.22594H15.5498L15.2171 11.5538L15.2199 11.5596Z" fill="#262B7E"/>
</svg>
