<svg width="84" height="112" viewBox="0 0 84 112" fill="none" xmlns="http://www.w3.org/2000/svg">
<g clip-path="url(#clip0_1777_13004)">
<path d="M28.6593 2.84378e-05C32.6494 0.832742 35.7374 3.55641 36.7089 7.56385C42.6593 7.49445 48.6965 7.06075 52.4784 12.5081C54.4041 15.3011 54.4041 17.0707 54.4561 20.2627C54.5602 26.3173 54.4561 32.4759 54.4561 38.4783C54.4561 45.1401 55.0459 53.2764 54.4561 59.7299C54.0744 64.0669 50.3446 68.1611 46.1637 69.2194C42.694 70.1041 38.9121 69.2541 35.3557 69.6878C34.922 69.948 32.6841 77.2342 31.9902 78.466C31.2095 79.8365 30.2033 80.1487 28.642 79.9926V95.3805H42.7287C42.5552 93.1772 44.2207 91.8588 46.3025 91.6853C47.9852 91.5465 54.9245 91.4771 56.1736 92.0149C57.6308 92.6394 58.0472 94.0273 58.4809 95.3805H82.5255C84.3124 95.3805 84.5379 97.9306 82.7337 97.9653H58.4635C57.9084 100.03 57.3706 101.452 54.9766 101.661C53.1203 101.817 46.8923 101.938 45.2616 101.608C43.6308 101.279 42.4859 99.5961 42.7114 97.9653H28.6246V104.367C28.6246 104.818 27.6184 107.108 27.2888 107.576C26.0398 109.415 24.01 110.439 21.9109 110.976C21.217 110.907 20.4016 111.063 19.7424 110.976C13.6531 110.144 10.9815 102.493 15.0757 97.9653C16.0472 96.8897 18.6494 95.3631 20.072 95.3631H26.0398V79.9752C24.4784 80.1314 23.4722 79.8191 22.6916 78.4486C21.9803 77.2169 19.725 69.9306 19.326 69.6704C15.7523 69.2194 11.8316 70.1041 8.36194 69.1326C4.23306 67.9703 0.659333 64.0149 0.242976 59.6952C-0.537693 51.6977 0.798119 42.4511 0.242976 34.3495C1.0063 27.8265 -1.68267 17.886 2.30741 12.3519C6.2975 6.81787 12.0398 7.4771 17.9728 7.52915C18.7709 3.85133 22.2578 0.451082 26.0224 -0.034668H28.6246L28.6593 2.84378e-05ZM2.84521 17.7819H51.8539C51.0906 13.4796 47.8638 10.5824 43.5094 10.2008C41.5144 10.0273 36.1885 10.6171 34.7832 10.062C34.2628 9.85381 34.0026 7.56385 33.6903 6.80052C31.4177 1.17971 23.1079 1.30114 20.9741 6.95666C20.7312 7.59854 20.4363 9.76707 20.072 10.0099C16.4809 10.6692 12.4214 9.59359 8.88238 10.7039C5.72501 11.6927 3.383 14.5552 2.86255 17.7993L2.84521 17.7819ZM51.8539 20.3842H2.84521V33.3953C5.44744 32.9963 8.18845 33.0137 10.6519 34.0372C10.3396 29.7869 13.6011 26.7683 17.6953 26.4387C22.8477 26.0397 31.8514 26.0397 37.0038 26.4387C39.103 26.6122 41.3409 27.5663 42.642 29.2665C43.0236 29.7695 44.0472 31.6778 44.0472 32.1983V38.1661C46.1637 38.8774 48.1414 39.1896 50.2058 38.1314C50.865 37.8018 51.1773 37.2466 51.8539 37.0731V20.3842ZM17.331 29.1103C15.5441 29.3532 13.5317 30.7757 13.2888 32.6493C13.8093 39.606 12.5255 47.7249 13.2715 54.5254C13.5317 56.9889 15.6308 58.1512 17.9208 58.3247C24.1488 58.7931 30.9493 57.9604 37.2293 58.3247C39.4152 58.0818 41.3409 56.6419 41.4623 54.3173C40.9939 47.4474 42.0695 39.8142 41.4623 33.0484C41.2541 30.7237 39.2417 29.2664 37.0038 29.0409C30.8279 28.4337 23.611 29.4399 17.331 29.093V29.1103ZM2.84521 36.2057V59.9381C2.84521 60.6147 4.09428 62.9914 4.58003 63.6159C8.65685 68.8377 14.5552 66.3569 20.0893 66.9814C20.4536 67.0161 20.7659 67.0855 21.0608 67.3111L25.2938 77.4077L29.7176 77.3557C30.1339 77.0781 32.4586 69.3408 33.1005 68.057C33.5342 67.1896 33.8811 67.0508 34.8353 66.9641C40.3867 66.461 46.129 68.7336 50.1364 63.6159C50.6742 62.9393 51.8712 60.7187 51.8712 59.9381V40.3173C49.2863 41.4796 46.8056 41.7398 44.0645 40.9591V55.1673C44.0645 57.6308 40.3347 60.8402 37.8539 60.8922C31.2095 60.5106 23.8365 61.4821 17.2616 60.9269C14.0348 60.6493 11.2591 58.342 10.7039 55.1153L10.6172 36.6568C8.06702 35.8241 5.44744 35.3036 2.82786 36.2057H2.84521ZM45.3483 94.8427V98.746L45.6779 99.0756H55.2194C56.1562 98.3296 55.549 97.5837 55.549 96.803C55.549 95.9182 56.2083 95.0161 54.9592 94.3569C52.3049 94.513 49.1302 94.0099 46.5453 94.3049C46.0596 94.3569 45.6953 94.461 45.3657 94.8427H45.3483ZM26.0571 98H20.3148C18.8576 98 16.7932 99.7002 16.186 101.036C13.9307 106.154 20.0026 110.734 24.2182 107.108C24.8254 106.587 26.0571 104.922 26.0571 104.176V98Z" fill="#262B7E"/>
<path d="M27.0801 33.2045C27.5658 33.1177 27.9822 33.2565 28.3118 33.6208C30.0119 37.5068 33.3081 41.7224 34.349 45.7993C36.1012 52.6171 27.1495 56.9889 22.2573 52.2528C16.6365 46.8055 24.2176 39.1722 26.2994 33.7423C26.4729 33.482 26.7678 33.2565 27.0801 33.2045ZM27.5658 37.5068C27.0627 37.4027 27.2189 37.5762 27.0801 37.7844C25.9178 39.5713 24.235 42.9542 23.4023 44.9492C22.743 46.5626 22.344 47.2739 23.1073 48.9913C25.0157 53.2937 31.9896 51.9579 32.0243 47.3259C32.0417 44.9145 28.3118 39.9876 27.5485 37.5068H27.5658Z" fill="#C21D38"/>
<path d="M26.8725 3.95538C32.5453 3.48697 35.1302 10.912 30.3768 14.1908C28.694 15.3531 25.8663 15.2838 24.2182 14.0867C19.9852 11.0334 21.7721 4.37173 26.8898 3.95538H26.8725ZM29.44 11.6406C32.2504 8.81287 27.7225 4.61461 25.1723 7.47706C22.6222 10.3395 26.8898 14.2082 29.44 11.6406Z" fill="#C21D38"/>
</g>
<defs>
<clipPath id="clip0_1777_13004">
<rect width="84" height="111.029" fill="white"/>
</clipPath>
</defs>
</svg>
