<svg width="84" height="84" viewBox="0 0 84 84" fill="none" xmlns="http://www.w3.org/2000/svg">
<g clip-path="url(#clip0_1777_12975)">
<path d="M55.1609 80.6303C54.9444 82.1324 53.4422 83.8105 51.8589 83.9323H3.30208C1.55631 83.8105 0.0135331 82.2407 0 80.4679V12.6264C0.108265 10.813 1.73224 9.39198 3.49154 9.18899C6.50942 8.82359 10.1228 9.41905 13.1948 9.17545C13.2624 4.3306 17.8231 5.10199 21.3146 5.11552C22.5868 -1.73223 32.3441 -1.62396 33.8598 5.10199C37.2702 5.11552 41.8579 4.3712 41.7902 9.18899C44.9164 9.45965 48.7327 8.78299 51.7777 9.27019C52.9686 9.45965 54.1189 10.204 54.6738 11.2731C54.7414 11.4084 55.1474 12.4234 55.1474 12.4911V31.3562C57.5022 29.015 60.7095 28.4331 63.5921 30.2736C63.971 30.5172 64.9454 31.4645 65.0807 31.5051C65.419 31.5863 66.5964 31.0044 67.2325 31.0179C72.1856 31.0856 73.39 38.1228 68.667 39.7332C64.7153 41.073 61.4674 36.9725 63.2267 33.332C62.1034 31.9787 60.3847 31.3697 58.6931 31.9517C57.1909 32.4659 55.0527 35.6191 54.0918 36.986C49.7612 43.1841 43.9691 54.985 48.5703 62.1982C54.782 71.9014 73.6336 62.0764 79.8318 56.3113C81.537 54.7279 82.0783 52.3731 80.4002 50.492C79.5205 49.5041 78.8709 50.465 77.6936 50.492C74.1885 50.5597 71.942 46.4592 73.9178 43.4954C76.4756 39.652 82.4437 41.7632 82.0106 46.5133C81.97 47.014 81.537 47.9478 81.5505 48.029C81.564 48.1914 83.1609 49.8424 83.4993 50.7762C85.4074 55.9729 81.0768 58.8014 77.3958 61.3456C70.927 65.8115 63.1725 69.3166 55.1068 68.7482V80.6709L55.1609 80.6303ZM31.6945 7.25375C31.3968 6.88836 31.3833 5.58918 31.1667 4.98019C29.9623 1.59692 24.7927 1.71871 23.8047 5.30499C23.4799 6.50943 23.9536 7.49735 22.262 7.64621C20.5703 7.79508 18.6351 7.44322 17.0111 7.64621C16.2668 7.72741 15.7931 8.14694 15.739 8.91833C15.9691 9.85211 15.4142 12.5181 16.145 13.0865L38.6235 13.2083C39.5031 12.9512 39.3407 9.59498 39.246 8.75593C39.1783 8.06574 38.8671 7.74095 38.1498 7.64621C36.4447 7.42968 34.2658 7.87628 32.5471 7.65975C32.29 7.63268 31.8163 7.45675 31.6675 7.26729L31.6945 7.25375ZM52.6167 80.2919V68.0309C51.3446 68.1392 50.492 69.7767 49.477 70.5616C48.638 71.2112 47.3523 71.7661 46.2697 71.7525C45.6607 71.7525 44.0638 71.0624 43.8202 71.1571C43.3871 71.3059 42.115 72.6187 41.6008 73.0111C35.9439 77.2199 27.7699 80.4408 20.8681 77.3688C11.6655 73.2682 12.7211 61.102 17.4036 53.8888C11.4219 46.0667 18.8922 35.159 28.3383 38.434C40.4369 42.6428 34.0087 61.4944 21.3958 56.7037C20.9357 56.5278 19.5012 55.6075 19.2847 55.7564C19.0275 55.9188 17.7825 58.8014 17.593 59.3156C12.1798 74.0261 24.7521 79.9265 36.8236 73.1329C37.6762 72.6457 41.5602 70.0609 41.8714 69.3842C42.0744 68.9377 41.4519 67.7197 41.4384 66.9348C41.3978 64.1469 43.5089 62.8207 45.1464 60.9802C42.4263 51.4799 47.5553 42.1286 52.6032 34.4418L52.5355 12.7076C52.2378 12.0309 51.71 11.7873 51.0063 11.7061C48.1508 11.3814 44.7134 11.9497 41.7902 11.7061C41.9391 14.318 40.3016 15.7255 37.8115 15.9285C31.2479 16.4698 23.9807 15.5225 17.3359 15.9285C14.7511 15.7255 13.1812 14.4128 13.1948 11.6926L3.68101 11.7332C2.92315 11.8685 2.51716 12.3287 2.53069 13.1271V80.1295C2.46303 80.6844 2.84195 80.9821 3.22088 81.2934L51.1822 81.3881C51.8589 81.4558 52.4949 80.928 52.6167 80.2784V80.2919ZM67.1242 33.5621C65.216 33.6704 64.4988 36.5259 66.5694 37.2566C69.5196 38.2852 70.0744 33.4132 67.1242 33.5621ZM19.8531 42.5481C12.8835 49.7206 24.4002 59.9517 30.7066 52.1295C36.4041 45.0653 26.1324 36.0793 19.8531 42.5481ZM77.274 44.0503C75.0275 44.4833 75.42 47.9072 77.7071 47.8531C80.4137 47.7854 79.9671 43.536 77.274 44.0503ZM46.5268 63.4703C45.16 64.6206 42.8729 66.5152 44.5781 68.3828C46.2832 70.2504 48.4215 68.3828 49.5582 66.9077C48.6651 65.7168 47.1223 64.9319 46.5268 63.4567V63.4703Z" fill="#262B7E"/>
<path d="M7.74071 25.943L47.5416 25.9971C48.719 26.7414 48.3265 28.3113 46.9597 28.4466H8.37677C6.7122 28.5414 6.11674 26.552 7.74071 25.943Z" fill="#C21D38"/>
<path d="M8.07948 31.5322L46.4458 31.4916C48.4081 31.3562 49.0713 33.8599 46.9601 34.0493H7.86295C6.27958 33.6569 6.55024 31.8164 8.07948 31.5457V31.5322Z" fill="#C21D38"/>
<path d="M7.74121 20.1914L27.4995 20.1508C28.9341 20.3267 29.2724 21.7883 28.0815 22.6003L8.03893 22.695C6.50969 22.5597 6.3473 20.6786 7.74121 20.1914Z" fill="#C21D38"/>
<path d="M24.6713 43.5495C30.3417 43.0894 30.5853 51.6694 25.1179 51.8047C20.0294 51.9265 19.4069 43.9826 24.6713 43.5495ZM24.8337 46.0667C22.912 46.2968 22.9797 49.6394 25.6051 49.044C27.2155 48.6786 26.7689 45.8366 24.8337 46.0667Z" fill="#C21D38"/>
</g>
<defs>
<clipPath id="clip0_1777_12975">
<rect width="84" height="83.9459" fill="white"/>
</clipPath>
</defs>
</svg>
