<svg width="84" height="77" viewBox="0 0 84 77" fill="none" xmlns="http://www.w3.org/2000/svg">
<g clip-path="url(#clip0_1777_11129)">
<path d="M0 35.9074C1.01063 24.549 10.4081 14.6463 22.0763 13.8145C26.6569 13.4896 33.9019 13.4896 38.4825 13.8145C45.9244 14.3474 53.2612 19.0258 57.0675 25.2898C57.435 25.8876 58.4587 27.629 58.5375 28.2139C58.695 29.3575 57.2644 29.9813 56.4769 29.1885C56.1881 28.8896 55.2694 26.7973 54.8625 26.1605C46.62 13.2427 27.6806 12.6059 18.6637 25.0559C8.1375 39.5982 19.1756 59.9496 37.1569 59.2998C38.115 59.2608 40.215 58.7279 41.0025 59.0528C41.5931 59.2998 41.6456 60.3264 41.3438 60.8073C40.74 61.769 34.4137 61.535 33.1275 61.561V69.2805C33.1275 69.2805 33.3506 69.5274 33.3769 69.5274H39.0337C38.6269 66.6684 40.1363 64.1992 43.2994 64.654V54.9072C40.1363 54.7642 36.855 55.1801 33.7181 54.7253C28.7306 54.0105 24.0975 50.9175 21.4987 46.6809C21.1575 46.135 20.1469 44.3286 20.1469 43.7828C20.1469 43.172 20.8556 42.5612 21.3806 42.5612H31.9594C29.295 39.8711 28.6912 35.8424 30.6206 32.5415C34.0331 26.6934 42.8794 27.2132 45.4125 33.4642L47.4863 32.0216L49.5994 31.3458L74.9962 31.3848C75.3375 31.5538 75.6131 31.8397 75.6131 32.2296V53.6856C75.7838 54.0755 75.1537 54.8942 74.865 54.8942H57.225V64.641C60.4275 64.1862 61.8844 66.6294 61.4906 69.5145L75.1144 69.5924C75.4556 69.8393 75.5606 70.1642 75.6131 70.5671C75.7444 71.6587 75.7575 74.8687 75.6131 75.9344C75.5344 76.5322 75.1012 76.8441 74.5238 76.974H10.5919C10.1062 76.8181 9.73875 76.4282 9.67313 75.9344C9.555 75.0766 9.52875 71.022 9.67313 70.2422C9.7125 70.0343 10.1325 69.5014 10.2375 69.5014H14.5819V59.6766C10.4606 57.6623 6.89062 54.9722 4.27875 51.2034C1.96875 47.8635 0.354375 43.4059 0 39.3253V39.1693C0.275625 38.3506 0.275625 37.064 0 36.2452C0 36.1413 0 36.0243 0 35.9204V35.9074ZM25.9219 16.0888C15.6844 15.348 6.01125 21.9499 3.24187 31.7227C-0.826875 46.0961 10.4344 59.8456 25.3575 59.2998C25.5544 59.2998 25.9744 59.4167 25.935 59.1438C24.7144 58.702 23.5069 57.9092 22.4438 57.1685C8.46563 47.2657 8.99062 26.6284 23.4937 17.4923L25.935 16.1018L25.9219 16.0888ZM37.38 30.761C30.2006 31.3328 30.24 41.6645 36.7238 42.5352C46.095 43.7958 45.9244 30.0723 37.38 30.761ZM73.3425 33.6331H49.6387C49.5469 33.6331 48.4837 34.1399 48.3 34.2569C45.8719 35.6864 45.3731 38.9484 47.1975 41.0927C47.5387 41.4955 49.0088 42.5612 49.4813 42.5612H73.3556V33.6201L73.3425 33.6331ZM45.4519 42.7301L44.6906 41.5995C44.52 41.5605 43.7062 42.3533 43.6406 42.4832C43.4963 42.8211 43.8638 42.7171 44.0475 42.7301C44.5069 42.7691 44.9794 42.7042 45.4387 42.7301H45.4519ZM73.3425 45.0044H23.2969C25.7512 49.6439 30.7781 52.386 36.0019 52.6459H73.3294V45.0044H73.3425ZM54.9675 54.9202H45.6225V64.4201C45.6225 64.4201 45.8456 64.667 45.8719 64.667H54.9806V54.9202H54.9675ZM30.8438 61.574C28.1794 61.4571 25.3706 61.743 22.7194 61.574C20.7506 61.4571 18.8344 60.8853 16.8919 60.5993V69.5404H30.8306V61.587L30.8438 61.574ZM59.2331 69.5404C59.1675 68.5917 59.6006 67.1492 58.3144 66.9543C53.2481 67.2792 47.5519 66.4864 42.5644 66.9413C40.8975 67.0972 41.4094 68.2669 41.3438 69.5534H59.22L59.2331 69.5404ZM73.3425 71.8147H11.9831V74.7388H73.3425V71.8147Z" fill="#262B7E"/>
<path d="M83.9996 2.44321V17.3884C83.7896 18.2721 82.5952 19.8316 81.6239 19.8316H71.7015V28.8506C71.7015 28.8506 71.1371 29.4095 70.9927 29.4614C70.3365 29.7343 69.4046 29.1885 69.4046 28.5257V19.8316H66.9502V28.8506C66.9502 28.8506 66.3858 29.4095 66.2415 29.4614C65.5852 29.7343 64.6533 29.1885 64.6533 28.5257V19.8316H54.7308C54.1533 19.8316 52.6308 18.415 52.6308 17.6873C52.8015 12.9828 52.014 7.31662 52.5127 2.69013C52.6702 1.2346 53.8908 0.0909705 55.374 0H81.1383C82.7265 0.168945 83.409 1.10464 84.0127 2.44321H83.9996ZM81.4927 2.48219L55.1246 2.36523L54.7833 3.00203L54.8752 17.2194L55.2427 17.5053L81.3746 17.4533C81.6765 17.1934 81.6765 16.8425 81.7027 16.4787C82.0046 13.0997 81.9652 6.88776 81.7027 3.46987C81.6896 3.23595 81.624 2.61215 81.4927 2.4562V2.48219Z" fill="#C21D38"/>
<path d="M21.1181 40.5728C20.1862 41.4955 19.1625 40.5079 19.0312 39.4032C17.3512 24.705 34.7287 14.9452 46.7381 23.8213C47.67 24.5101 50.505 27.0962 50.7806 28.1099C51.0562 29.1236 50.0062 29.8903 49.0875 29.4485C42.7219 20.3254 28.8881 20.4684 23.2706 30.2672C21.5906 33.1782 21.3281 35.6085 21.3281 38.9094C21.3281 39.4682 21.6825 40.014 21.1312 40.5598L21.1181 40.5728Z" fill="#262B7E"/>
<path d="M70.5472 11.3713C70.6916 10.7345 71.0197 9.7598 71.6366 9.44791C72.1878 9.162 75.4428 9.17499 76.1647 9.30495C77.1228 9.4739 77.6478 10.4226 77.0178 11.2153C76.3353 12.086 73.8416 11.4882 72.8309 11.7742C72.1222 12.8008 71.6366 16.8555 69.6547 15.5819C68.9984 15.166 67.3053 9.51288 66.7672 8.44723C66.3997 8.38225 66.5047 8.47322 66.3997 8.65516C65.8878 9.59086 65.6778 11.3453 64.4834 11.6312C63.7747 11.8001 60.9003 11.8001 60.1916 11.6312C59.4828 11.4623 59.1416 11.0464 59.2072 10.3186C59.3647 8.64217 62.5541 9.51288 63.6566 9.18799C63.9716 8.98006 65.2447 5.23727 65.7172 4.56149C66.2684 3.76875 67.3447 3.95069 67.7909 4.75643C68.7228 6.43288 69.2609 9.07103 70.1403 10.8774C70.1928 10.9944 70.4291 11.4623 70.5472 11.3583V11.3713Z" fill="#C21D38"/>
</g>
<defs>
<clipPath id="clip0_1777_11129">
<rect width="84" height="77" fill="white"/>
</clipPath>
</defs>
</svg>
