<svg width="84" height="91" viewBox="0 0 84 91" fill="none" xmlns="http://www.w3.org/2000/svg">
<g clip-path="url(#clip0_1777_12988)">
<path d="M80.9279 2.81189C74.2638 6.45276 67.7297 10.7925 61.0169 14.2871C56.0269 16.8715 51.2645 18.1881 45.5594 17.4729C41.4472 16.9528 38.1802 14.8072 35.4333 19.5859C32.6864 24.3645 34.1655 27.7941 39.0741 29.6308C40.3907 30.1184 42.7313 30.1346 42.7963 31.825C42.845 32.9141 41.1059 34.1981 40.9596 36.0836C40.6183 40.3421 47.4124 44.373 51.102 42.3738C53.8489 40.8785 54.2228 37.8227 55.4093 35.3034C60.7568 23.9744 71.8257 21.1625 81.643 14.8072C83.2684 14.1246 84.845 16.1888 83.4635 17.5054C78.1322 20.8212 72.4271 23.5681 67.0958 26.8839C63.3574 29.2082 61.5858 30.9798 59.4077 34.832C57.1159 38.8792 56.5796 43.9342 51.5734 45.6896C44.6655 48.1114 34.7506 40.5046 38.5053 33.0441C35.0107 31.6463 31.3861 29.0781 30.8497 25.0634C30.3133 21.0487 33.1415 15.75 36.7498 14.0108C40.6345 12.1254 44.1941 14.3684 48.1601 14.4659C58.6763 14.7422 69.8265 4.29099 79.1399 0.130003C80.8303 -0.503898 82.0331 1.56034 80.9116 2.81189H80.9279Z" fill="#262B7E"/>
<path d="M30.8007 41.4799C37.3997 40.4234 42.3734 42.5038 43.3649 49.5255C43.9988 53.9953 42.6985 57.8475 38.4562 59.798C31.1095 63.1625 28.4764 63.13 23.8603 70.5905C19.9268 76.962 16.546 83.8699 12.6939 90.3065C11.3123 91.8506 9.15052 90.6153 9.83318 88.6648C14.0592 81.9682 17.4562 74.459 21.6985 67.8274C24.3316 63.7151 28.005 60.4644 32.4911 58.5139C37.351 56.3847 41.2844 56.661 40.0979 49.5743C39.3827 45.267 36.6683 44.1455 32.5561 44.5681C31.3696 44.6819 29.5654 45.5758 28.5576 45.267C26.981 44.7631 27.6962 42.6501 27.5499 41.3986C26.9485 36.0673 16.8223 35.8398 15.0019 40.2283C13.7666 43.1703 14.9694 45.7384 15.1645 48.7128C15.9284 61.0008 8.2403 68.5913 3.05532 78.8638C1.78752 80.7492 -0.780594 79.2538 0.227146 77.2546C4.94077 67.6486 12.6614 60.1068 11.9137 48.6966C11.6374 44.6169 10.0607 42 12.5476 37.969C16.5785 31.4512 30.4431 32.7515 30.8007 41.4961V41.4799Z" fill="#262B7E"/>
<path d="M51.8821 53.7028C52.581 53.5565 52.9223 53.7028 53.4587 54.0766C54.4502 54.7593 60.0578 60.3669 60.7729 61.3746C61.8944 62.935 60.4804 64.6741 58.7249 63.8289L51.1181 56.4009C50.3217 55.5557 50.6955 53.9628 51.8821 53.7028Z" fill="#C21D38"/>
<path d="M55.7506 46.4048C57.2948 46.1285 64.8853 46.1123 66.4619 46.3723C68.2336 46.6486 68.3149 49.038 66.6732 49.6068C63.325 49.2493 58.9364 50.0945 55.7181 49.6068C53.979 49.3305 53.8164 46.7624 55.7506 46.4211V46.4048Z" fill="#C21D38"/>
<path d="M6.17643 28.3143C7.68804 28.038 14.921 28.038 16.4814 28.2818C18.2856 28.5581 18.2693 31.2237 16.4814 31.5163C14.8885 31.7601 7.7368 31.7601 6.14392 31.5163C4.40476 31.24 4.24222 28.6719 6.17643 28.3305V28.3143Z" fill="#C21D38"/>
<path d="M46.3889 70.2655C45.2837 71.1919 43.772 70.428 43.5932 69.0139C43.3819 67.1935 43.3332 60.8057 43.5932 59.0665C43.8858 57.2136 46.6002 57.0186 46.844 59.0665C47.0878 61.1145 47.1041 67.1935 46.844 69.2415C46.8115 69.5503 46.6002 70.0867 46.3727 70.298L46.3889 70.2655Z" fill="#C21D38"/>
<path d="M12.4669 14.0759C12.9545 14.0109 13.2796 14.1084 13.6372 14.4497C15.5876 16.7253 19.4073 19.1146 21.0489 21.4552C22.1867 23.0805 20.6101 24.6247 18.9034 23.7957L11.2804 16.579C10.7277 15.5225 11.2153 14.2222 12.4669 14.0597V14.0759Z" fill="#C21D38"/>
<path d="M26.6893 7.37924C28.1196 7.23295 28.4772 8.51701 28.5747 9.67103C28.7535 11.7028 28.8185 16.4489 28.5422 18.3994C28.2334 20.7399 25.5028 20.8699 25.3077 18.6269C25.0151 15.4086 25.5353 11.7353 25.3077 8.46825C25.4215 7.88311 26.1367 7.44425 26.673 7.39549L26.6893 7.37924Z" fill="#C21D38"/>
</g>
<defs>
<clipPath id="clip0_1777_12988">
<rect width="84" height="91.0054" fill="white"/>
</clipPath>
</defs>
</svg>
