<svg width="84" height="84" viewBox="0 0 84 84" fill="none" xmlns="http://www.w3.org/2000/svg">
<g clip-path="url(#clip0_1777_4212)">
<path d="M81.0472 0C82.5566 0.525 83.4753 1.44375 84.0003 2.95312V20.0156C83.7772 20.9869 83.646 21.9581 83.3835 22.9294C81.5722 29.5575 75.3378 34.335 68.4997 34.6237C66.6097 34.7025 64.7197 34.3219 62.8297 34.2825L63.0003 37.0781H67.1872C69.7072 37.0781 73.881 39.1519 75.7972 40.7662C84.1447 47.8144 80.9028 58.2356 81.5328 67.8431C81.3622 69.4575 79.2622 69.5231 79.0653 67.8431C78.3172 61.3594 80.5616 52.8281 77.5691 46.8562C74.7997 41.3569 68.841 38.8762 62.856 39.5587L62.1735 42.4069C62.3047 42.5644 62.7116 42.4987 62.9085 42.4856C73.1985 41.6587 79.446 51.9487 75.2853 61.11L75.3247 79.9444C75.7578 82.11 78.7897 82.0837 79.0653 79.8262C79.3147 77.7525 78.816 75.285 79.131 73.1719C79.7347 71.8987 81.3622 72.1612 81.5197 73.5919C81.6772 75.0225 81.6641 80.0494 81.1916 81.3094C80.6535 82.7662 79.446 83.4881 78.0678 84.0131H76.4272C74.931 83.5537 73.671 82.7137 73.1066 81.1781C73.0541 81.0206 72.8178 80.2331 72.8178 80.1544V64.9819C64.9822 73.9594 49.9672 70.7175 42.066 63.5119C36.4616 58.4062 33.7841 50.9644 33.3772 43.4962C33.2328 43.4962 31.0278 44.5856 30.8441 44.7431C29.1641 46.1344 27.6547 48.7069 25.9091 50.1375C25.6072 50.6625 25.8172 51.3056 25.7122 51.9094C25.5547 52.8412 21.7485 57.7106 20.8953 58.7344C20.6328 59.0625 20.1341 59.7975 19.806 59.9419C18.7691 60.4012 17.7191 59.4562 18.0866 58.38L23.1135 51.7519C23.7303 50.6494 22.8641 50.0062 22.1553 49.3106C21.4466 48.615 19.596 46.83 18.861 46.3706C17.7191 45.6487 16.7872 46.9219 15.9078 47.67C11.6947 51.2925 7.77034 55.3087 3.60971 58.9969C-0.459039 65.0212 7.29783 71.4131 12.3903 65.8087C13.0072 65.1394 14.5166 62.7112 15.0285 62.3831C16.2622 61.6087 17.4828 62.8425 16.6428 64.3256C15.8028 65.8087 13.2697 68.7487 11.7078 69.5625C6.72034 72.135 0.919086 68.9062 0.013461 63.525C0.079086 62.8425 -0.065289 62.055 0.013461 61.3987C0.302211 59.0756 1.86409 57.1594 3.53096 55.65C7.75721 52.5262 11.6422 47.4862 15.8422 44.5069C16.9972 43.6931 17.9028 43.9425 18.6378 43.5225C19.0316 43.2994 22.6803 39.2437 23.2185 38.5875C26.0141 35.2144 28.0747 30.135 30.5422 26.3944C32.0122 24.1631 33.7578 22.9687 36.5535 23.1394C39.8872 12.9675 52.2378 3.33375 63.2366 6.91687C64.4178 7.2975 67.7385 8.64937 66.8985 10.2637C66.0585 11.8781 64.0766 9.90937 62.9872 9.46312C58.656 7.73062 53.196 9.12187 49.2716 11.3137C44.8747 13.7681 41.3441 17.9812 39.546 22.6669C42.2103 22.1025 43.4441 18.5587 46.476 19.9237C47.7097 20.475 48.261 21.6956 48.2478 22.995C49.2978 22.47 51.411 20.8162 52.5528 21.0525C53.4585 21.2494 53.6553 22.6406 52.9991 23.2312C52.7235 23.4675 50.9778 24.1894 50.3872 24.5569C49.7966 24.9244 48.156 26.0269 47.8016 26.4731C47.3685 27.0112 46.2922 30.3319 45.6491 31.4606C44.8878 32.7862 43.0372 34.6762 42.5385 35.7394C41.9478 36.9994 41.9478 40.635 42.0135 42.105C42.0528 43.2075 42.8272 44.835 41.6722 45.5437C41.1472 45.8587 40.281 45.6619 40.0053 45.0975C39.756 44.5856 39.5985 42.7612 39.5591 42.105C39.4935 41.1862 39.6247 40.2281 39.5591 39.3094C39.546 39.06 39.6903 38.8369 39.3097 38.9025L35.8053 41.9737C36.0022 48.6806 37.8003 55.4006 42.4203 60.4012C49.5603 68.1319 65.8747 72.2006 72.2535 61.53C78.9735 50.295 66.741 39.9525 56.3853 47.3025C55.5453 47.9062 53.9572 49.9537 52.9203 48.7462C52.041 47.7225 53.2485 46.6856 53.9835 46.0425C55.6241 44.6119 57.6322 43.8637 59.5485 42.9187C60.966 38.7581 60.7166 34.4137 59.5485 30.24C58.1966 30.2006 52.881 29.5706 53.0122 27.6937C53.0516 27.1425 53.6816 26.5519 54.2328 26.5256C54.8366 26.5125 56.4116 27.3525 57.2647 27.5231C63.8666 28.8356 69.8253 23.2312 68.7097 16.5637C68.526 15.4481 67.2791 13.2956 69.1953 13.02C70.521 12.8231 71.0066 15.2644 71.1641 16.2356C71.5053 18.3356 71.2428 20.4094 70.5078 22.3912C70.0222 23.7169 69.3266 24.8719 68.421 25.9612C72.8441 26.0137 76.2697 22.4831 76.6241 18.165C77.0178 13.2694 76.296 7.90125 76.6635 2.95312C77.0178 1.49625 78.1728 0.4725 79.5772 0.039375H81.0472V0ZM62.3703 31.6444C67.056 32.4319 71.5578 32.4975 75.6266 29.7544C84.381 23.8481 80.811 12.6 81.546 3.675C81.4541 2.13937 79.3278 2.00812 79.0916 3.53062C78.4485 11.7206 82.0972 25.0425 71.3741 27.9694C69.0903 28.5862 67.6466 28.035 65.7303 28.2581C65.4941 28.2844 64.5622 28.9406 64.1553 29.1112C63.5253 29.3737 62.8297 29.5181 62.1866 29.7675L62.0291 30.0825L62.3703 31.6444ZM45.5835 22.1944C45.4916 22.1025 45.321 22.0631 45.1897 22.0369C44.1135 22.575 43.2735 23.5462 42.171 24.2025C41.0685 24.8587 39.6116 25.4887 38.3253 25.6069C35.8578 25.8431 34.6372 24.9769 32.8653 27.3656C31.0935 29.7544 28.8622 33.9937 27.3922 36.6581C27.1035 37.1831 26.4078 38.01 26.7491 38.4956L30.7785 42.0131C31.2247 42.0131 33.5741 40.4512 34.0991 40.0837C38.5222 36.9994 44.0478 31.2506 45.3472 25.9087C45.5178 25.1869 46.056 22.6931 45.5835 22.2075V22.1944ZM25.0428 40.2019L20.8691 44.7169L22.641 46.3903L24.4128 48.0637L28.5603 43.7062C28.6391 43.2731 25.4366 40.8056 25.0428 40.2019Z" fill="#262B7E"/>
<path d="M45.2555 54.1669C46.2136 54.0357 46.5024 55.2038 47.6705 55.2038C48.8386 55.2038 49.8886 53.235 50.9517 54.6263C52.1592 56.2144 49.0355 57.7107 47.6705 57.7107C46.463 57.7107 43.9955 56.6607 44.1399 55.2169C44.1924 54.6394 44.7042 54.2325 45.2555 54.1669Z" fill="#C21D38"/>
<path d="M64.1158 54.1669C65.074 54.0357 65.3627 55.2038 66.5308 55.2038C67.699 55.2038 68.749 53.235 69.8121 54.6263C71.0196 56.2144 67.8958 57.7107 66.5308 57.7107C65.3233 57.7107 62.8558 56.6607 63.0002 55.2169C63.0527 54.6394 63.5646 54.2325 64.1158 54.1669Z" fill="#C21D38"/>
<path d="M56.7265 56.6344C59.4828 56.0962 59.719 60.8475 56.7003 60.3619C54.8628 60.0731 54.7971 57.0019 56.7265 56.6344Z" fill="#C21D38"/>
</g>
<defs>
<clipPath id="clip0_1777_4212">
<rect width="84" height="84" fill="white"/>
</clipPath>
</defs>
</svg>
