<svg width="84" height="89" viewBox="0 0 84 89" fill="none" xmlns="http://www.w3.org/2000/svg">
<g clip-path="url(#clip0_1777_3143)">
<path d="M50.0625 58.6769L47.6801 85.2306C46.4495 88.4493 43.6253 86.5402 44.3353 83.5898C45.771 72.1194 46.1655 60.5071 47.5066 49.0368C47.6801 47.5379 47.9799 46.0706 48.3428 44.6033L48.0114 44.2877C45.487 43.8302 41.59 44.0984 39.318 43.0255C37.046 41.9527 35.6102 38.4342 33.9378 36.746C33.7327 36.5409 33.6696 36.3358 33.3067 36.4305L29.1099 48.169L37.8822 55.5056C38.8131 56.6416 39.5073 57.8565 39.7913 59.3238C39.5073 66.4553 40.5013 74.4545 39.9018 81.4914C39.1918 89.7273 27.5794 90.0113 26.333 81.9016V63.5049L25.3706 62.716C24.8657 62.6213 25.1181 62.9369 25.055 63.2367C24.2977 66.7235 23.9664 70.8099 21.5682 73.5237C18.1444 76.2058 13.206 84.5206 9.48252 86.0353C4.48102 88.0706 -0.473154 84.284 0.0475073 78.9354C0.457725 74.7228 8.47275 68.8061 10.7447 65.0511C13.3796 50.0939 18.7755 35.9572 24.5344 22.0255C33.5592 12.8272 38.75 27.9579 43.925 33.133C44.0986 33.3065 44.2406 33.5274 44.5088 33.6221C48.4374 34.7896 54.0858 33.3696 56.768 37.03C64.5464 35.4838 73.1294 36.888 75.78 45.3764C77.342 55.6161 77.8627 66.0451 79.1091 76.3321C82.0595 77.4523 84.1264 79.3772 84.0002 82.7536C83.8108 87.5657 78.2098 90.1533 74.3443 87.2975C70.4788 84.4418 71.4096 78.5567 75.7327 76.7738L74.0287 58.6769H50.0783H50.0625ZM29.2361 22.6882C28.3052 22.8775 27.2639 23.7295 26.9641 24.6446C24.3608 32.4545 20.8108 40.1698 18.2706 47.9639C17.3555 50.7566 17.2451 51.293 19.4382 53.3756C22.3728 56.1683 26.049 58.598 29.0783 61.3433C29.5516 61.8798 29.6779 62.3215 29.741 63.0158C30.2932 68.7746 28.9521 76.0954 29.741 81.6649C30.2616 85.3726 35.9416 85.4515 36.4938 81.4598L36.4622 59.6867C36.2729 58.8347 35.7207 58.2194 35.1369 57.6198C32.6914 55.127 29.0468 52.997 26.5381 50.5199C26.0175 50.015 25.4337 49.5732 25.3232 48.7844L31.5081 31.9497C31.8709 30.9557 33.4172 30.8452 34.1587 31.4448C36.5569 34.2374 38.4029 37.6927 41.1482 40.1382L52.4923 41.4951C54.4329 41.2269 54.7643 38.7971 52.8709 38.166C50.3623 37.3298 46.1497 37.5507 43.4044 37.03C43.0257 36.9512 42.6944 36.7776 42.3631 36.5883L31.9183 23.0826C31.1136 22.6566 30.1512 22.4831 29.2361 22.6724V22.6882ZM73.6027 55.2847C72.9559 51.7821 73.4765 47.7273 71.7252 44.5402C70.5734 42.4418 68.0332 40.4064 65.5877 40.0751C64.6095 39.9489 57.9198 39.8858 57.5253 40.2802C57.0205 43.2464 54.8116 44.7611 51.9401 45.0293C50.6305 48.2479 50.8041 51.861 50.4728 55.2847H73.587H73.6027ZM16.3616 55.2847L13.6951 66.9286C10.9183 70.5732 7.03699 73.8392 4.27591 77.4365C1.51483 81.0338 5.53812 84.852 8.72519 82.5169C11.8965 78.6198 16.6613 74.6439 19.5329 70.6364C21.1106 68.4433 21.2211 62.9527 22.2466 60.2705L16.3616 55.269V55.2847ZM77.9416 79.7874C74.3127 79.8663 74.6441 85.1518 77.9416 85.1518C81.4284 85.1518 81.5073 79.7085 77.9416 79.7874Z" fill="#262B7E"/>
<path d="M39.6335 -2.88186e-05C52.6185 -0.5838 53.0918 19.1067 40.4224 19.4538C27.7529 19.8009 27.0272 0.583743 39.6335 -2.88186e-05ZM39.6335 3.40794C30.4194 4.13371 33.1647 18.6964 42.1579 15.6987C49.1789 13.3478 46.7807 2.85572 39.6335 3.40794Z" fill="#C21D38"/>
</g>
<defs>
<clipPath id="clip0_1777_3143">
<rect width="84" height="88.4808" fill="white"/>
</clipPath>
</defs>
</svg>
