<svg width="84" height="84" viewBox="0 0 84 84" fill="none" xmlns="http://www.w3.org/2000/svg">
<g clip-path="url(#clip0_1777_11831)">
<path d="M43.8113 0L48.602 1.03688C50.6888 1.77188 52.6707 2.74312 54.4557 4.0425C55.3614 4.69875 58.7476 7.07438 56.6476 8.17688C55.6632 8.68875 55.2957 7.665 54.797 7.78312L23.5595 20.6981C23.3101 20.8163 23.3232 21.0131 23.297 21.2494C23.192 22.1681 23.192 24.6225 23.297 25.5281C23.3232 25.7644 23.3232 25.9481 23.5463 26.0925H26.0138C26.2107 26.0925 26.5913 26.9063 26.6963 26.9194L58.7476 13.125C58.787 12.5869 58.2882 12.2456 58.262 11.7206C58.2226 10.6444 59.5876 10.0931 60.3882 10.7625C60.7688 11.0906 61.832 13.7419 62.042 14.3587C63.3807 18.4012 63.1838 22.4437 63.2101 26.6437C64.037 27.4312 64.8113 27.825 65.4413 28.8356C68.237 33.2981 64.8507 38.7319 59.732 38.4038C59.4695 44.6644 55.4532 50.3212 49.967 53.1694C49.8226 53.4056 49.7963 58.1831 49.8882 58.6688C49.9276 58.8656 49.9538 58.9969 50.1638 59.0494C54.1145 60.2569 58.8657 60.6244 62.462 62.6588C63.4595 63.2231 66.3207 64.8637 64.5751 66.1369C63.512 66.9112 62.0551 65.1919 60.992 64.6275C59.1545 63.6431 56.8576 63.1575 54.8232 62.8688C51.6207 76.3875 32.4188 76.3613 29.2032 62.8688C23.8088 63.3675 18.7951 66.36 17.2463 71.7938C17.102 72.2925 16.7607 73.4869 16.7607 73.9331V81.5587H25.9482V77.0438C25.9482 76.0463 28.4157 76.0331 28.4157 77.3719V81.5587H55.6501V77.3719C55.6501 76.0331 58.1176 76.0463 58.1176 77.0438V81.5587H67.3051V73.7625L66.1501 69.6675C66.1501 68.5913 67.5413 68.0794 68.2501 68.8012C68.4863 69.0506 69.1032 70.7437 69.2345 71.1769C69.9432 73.6706 70.0876 80.1675 69.7726 82.7794C69.6938 83.4356 69.4445 83.6325 68.9457 84H15.0938C14.6082 83.6194 14.3457 83.4225 14.267 82.7794C13.9651 80.2462 14.0963 73.9856 14.7132 71.5706C15.4613 68.5912 17.417 65.6119 19.8713 63.7613C23.9007 60.7294 29.1376 60.4144 33.8495 59.0362L34.112 58.8L34.0595 53.1562C32.4057 52.1981 30.647 51.0825 29.2951 49.7175C28.9932 49.4025 27.5626 47.7094 27.4838 47.4206C27.1688 46.41 28.127 45.4388 29.177 45.8981C29.6626 46.1081 31.4738 48.3919 32.1695 48.9694C39.6507 55.2956 51.1876 52.8413 55.6632 44.2313C57.9338 39.8606 57.3695 34.9519 57.4351 30.1744H26.7488V39.2831C26.7488 40.32 27.8382 41.6981 26.9982 42.6562C25.0426 44.94 24.1238 39.5587 24.2813 38.3775C19.202 38.6925 15.8288 33.3769 18.5063 28.9144C19.1495 27.8513 19.937 27.4313 20.8032 26.6175C20.8557 23.1 20.672 19.7138 21.4332 16.2619C23.1263 8.67563 29.3082 2.53313 36.8157 0.63L40.202 0H43.8113ZM52.8282 6.06375C49.7176 3.39937 45.242 2.3625 41.1863 2.45438L50.0063 7.02187L52.8413 6.06375H52.8282ZM33.1407 4.59375C36.2645 6.6675 39.8082 8.04562 43.1026 9.8175L46.9089 8.28187L37.0651 3.18938L33.1276 4.59375H33.1407ZM40.0313 10.9988L30.7651 6.41812C30.0826 6.4575 27.077 9.67313 27.077 9.93563L33.8888 13.6238L39.8213 11.3662L40.0313 10.9988ZM31.0013 14.7656L25.607 12.1538C24.6882 14.0044 23.9007 15.9731 23.6251 18.0469L31.0013 14.7656ZM60.7032 20.1731L59.7188 15.2512L55.6238 17.1413L60.7032 20.1731ZM57.9995 26.0925C58.5638 25.935 59.7976 26.2106 60.467 26.0925C60.8607 26.0925 60.7426 23.5594 60.6245 23.1394L52.7495 18.3881L47.2501 20.7637L57.2513 26.6831C57.5795 26.7487 57.8157 26.145 57.9995 26.0925ZM53.9701 27.72C53.957 27.51 53.7339 27.4575 53.5895 27.3656C50.597 25.4625 47.3945 23.835 44.3757 21.9844L33.8495 26.5387L31.5001 27.72H53.9701ZM24.1238 28.5469C18.7032 28.3237 18.7163 36.1463 24.1238 35.9231V28.5469ZM59.8763 35.9362C65.2838 36.1462 65.297 28.3369 59.8763 28.56V35.9362ZM47.4076 54.1406C43.9163 55.2956 40.0707 55.2563 36.5795 54.1406V60.6244C36.5795 63.1181 39.7032 65.3362 42.0788 65.31C44.4545 65.2837 47.4076 63.0525 47.4076 60.6244V54.1406ZM33.7576 61.5563C33.4426 61.5956 31.5657 62.0813 31.5263 62.2519C34.2301 73.29 49.7701 73.29 52.4607 62.2519L49.6913 61.5825C47.7095 69.6806 36.3695 69.7988 34.3613 61.6744L34.1776 61.53C34.0332 61.4775 33.8888 61.53 33.7576 61.5563Z" fill="#262B7E"/>
<path d="M0 19.1887V18.375C0.406875 17.5612 1.08937 17.7056 1.70625 17.3643C2.0475 17.1806 2.2575 16.8131 2.73 16.59C4.60687 15.6712 5.67 16.5243 7.15312 17.5612C8.2425 17.1543 8.58375 16.3143 9.9225 16.2356C11.7469 16.1306 12.5344 17.5481 13.2038 17.5481C13.9256 17.5481 14.7394 15.9075 16.485 16.2487C17.5219 16.4587 17.7319 18.0075 16.8 18.5193C16.4456 18.7162 16.0781 18.6375 15.7631 18.795C14.9231 19.1887 14.7919 19.9368 13.3744 20.0156C11.6419 20.1075 10.9725 18.7293 10.2506 18.7031C9.66 18.6768 8.62313 20.0025 7.31063 20.0287C5.775 20.0681 5.02687 18.795 4.34437 18.7031C3.66187 18.6112 3.21563 19.4512 2.58563 19.7268C1.575 20.1731 0.63 20.2256 0.013125 19.2018L0 19.1887Z" fill="#C21D38"/>
<path d="M84.0004 18.375V19.1888C83.3704 20.2125 82.4385 20.1469 81.4279 19.7138C80.7979 19.4381 80.3123 18.5981 79.6691 18.69C79.3541 18.7425 78.5535 19.5038 78.0548 19.7138C75.4691 20.7638 74.7998 18.6506 73.776 18.69C73.0541 18.7294 72.3848 20.1075 70.6523 20.0025C69.2216 19.9238 69.0904 19.1625 68.2635 18.7819C67.9485 18.6375 67.581 18.7031 67.2266 18.5063C66.2948 17.9944 66.5048 16.4325 67.5416 16.2356C69.2873 15.8944 70.101 17.535 70.8229 17.535C71.4923 17.535 72.2929 16.1175 74.1041 16.2225C75.4429 16.3013 75.7841 17.1413 76.8735 17.5481C78.3566 16.5113 79.4198 15.6581 81.2966 16.5769C81.7691 16.8131 81.9923 17.1675 82.3204 17.3513C82.9241 17.6794 83.6197 17.5481 84.0266 18.3619L84.0004 18.375Z" fill="#C21D38"/>
<path d="M75.0089 27.6806C75.2845 27.9562 77.1745 27.5493 78.1983 28.0218C79.5895 28.6518 79.3926 29.4918 79.9833 30.5025C80.3639 31.1587 81.5977 31.815 80.4689 32.8125C78.9202 34.1906 77.647 31.2637 77.1089 30.2662C75.9145 30.135 75.337 30.5418 74.1164 29.9775C72.7777 29.3475 72.712 28.2843 72.0295 27.1425C70.7302 27.0637 69.9426 27.51 68.6958 26.7093C67.4489 25.9087 67.6851 25.0687 67.1208 24.2287C66.9764 24.0056 66.5958 23.9925 66.412 23.5856C65.9526 22.5487 66.8845 21.5775 67.9739 21.8531C69.352 22.2075 69.6276 24.465 70.0608 24.6881C71.3601 24.7012 72.2001 24.36 73.3945 25.1212C74.5889 25.8825 74.5101 27.1556 75.022 27.6806H75.0089Z" fill="#C21D38"/>
<path d="M77.8841 1.66693C79.6429 1.26006 80.0235 3.45193 78.3697 4.29193C77.6741 4.64631 76.4403 4.50193 76.0466 4.92193C75.6791 5.30256 75.8628 6.45756 75.5085 7.16631C75.2328 7.69131 74.3141 8.49193 73.7497 8.68881C73.2247 8.85943 72.1747 8.79381 71.8728 9.10881C71.3085 9.68631 71.886 11.2219 70.4028 12.3901C69.3266 13.2301 68.8803 12.8626 67.896 13.1644C67.6203 13.2432 67.4891 13.5976 66.9378 13.6763C65.901 13.8469 65.1135 12.7051 65.8222 11.7338C66.531 10.7626 67.791 10.7494 68.8672 10.5263C69.3529 9.79131 69.156 8.87256 69.5497 8.09818C70.2454 6.73318 71.7679 6.47068 73.1329 6.26068C73.6185 4.94818 73.3822 3.84568 74.6685 2.87443C75.5085 2.24443 76.2304 2.34943 77.1622 2.08693C77.4247 2.02131 77.6216 1.74568 77.8972 1.66693H77.8841Z" fill="#C21D38"/>
<path d="M16.9445 24.1631C16.3408 24.9243 16.5508 25.9218 15.317 26.7225C14.0833 27.5231 13.2827 27.0768 11.9833 27.1556C11.2877 28.2975 11.2352 29.3475 9.89641 29.9906C8.67578 30.5681 8.09828 30.1481 6.90391 30.2793C6.39203 30.7387 6.36578 31.4343 5.99828 31.9856C5.42078 32.8387 4.04266 33.81 3.32078 32.55C2.67766 31.4343 3.63578 31.1718 4.02953 30.5025C4.60703 29.5181 4.38391 28.7568 5.70953 28.0875C6.93016 27.4706 7.73078 27.9037 8.93828 27.7462C9.48953 26.3156 10.2114 24.8456 11.9308 24.6356C12.692 24.5437 13.2564 24.8587 13.9652 24.7143C14.3983 24.4912 14.6739 22.2337 16.052 21.8793C17.1152 21.6037 18.0733 22.5487 17.6139 23.6118C17.4433 24.0056 17.102 24.0187 16.9577 24.1893L16.9445 24.1631Z" fill="#C21D38"/>
<path d="M5.36772 1.66682C6.24709 1.46994 6.31272 1.92932 6.85084 2.07369C7.70397 2.30994 8.47834 2.23119 9.26584 2.78244C10.5915 3.70119 10.4208 4.93494 10.8933 6.24744C12.2583 6.45744 13.7677 6.71994 14.4765 8.08494C14.8833 8.87244 14.6733 9.77807 15.159 10.5131C16.2483 10.7493 17.4821 10.7231 18.204 11.7206C18.9258 12.7181 18.1252 13.8337 17.0883 13.6631C16.5371 13.5712 16.3927 13.2299 16.1302 13.1512C15.1458 12.8624 14.6996 13.2299 13.6233 12.3768C12.1271 11.2087 12.7177 9.67307 12.1533 9.09557C11.8515 8.78057 10.7883 8.84619 10.2765 8.67557C9.71209 8.49182 8.78022 7.69119 8.51772 7.15307C8.15022 6.44432 8.34709 5.28932 7.97959 4.90869C7.42834 4.34432 5.53834 4.85619 4.77709 3.51744C4.40959 2.87432 4.59334 1.83744 5.39397 1.65369L5.36772 1.66682Z" fill="#C21D38"/>
<path d="M41.3044 43.8506C42.1969 43.7588 42.9188 43.8506 43.7719 44.0738C44.9663 44.3888 47.7357 45.7406 46.7382 47.3156C45.885 48.6544 44.4282 46.9744 43.68 46.6331C42.6038 46.1475 41.3963 46.1475 40.32 46.6331C39.6113 46.9481 37.9182 48.7463 37.1963 47.2106C36.33 45.3469 39.9 44.0081 41.3044 43.8506Z" fill="#262B7E"/>
<path d="M35.3977 32.8518C38.3771 32.2743 38.7315 37.1175 35.5159 36.7631C33.429 36.5268 33.2584 33.2587 35.3977 32.8518Z" fill="#262B7E"/>
<path d="M47.8671 32.8519C50.5184 32.4713 50.8465 36.2382 48.7728 36.7238C45.8196 37.4063 45.3078 33.2325 47.8671 32.8519Z" fill="#262B7E"/>
</g>
<defs>
<clipPath id="clip0_1777_11831">
<rect width="84" height="84" fill="white"/>
</clipPath>
</defs>
</svg>
